<svg xmlns="http://www.w3.org/2000/svg" xmlns:xlink="http://www.w3.org/1999/xlink" width="1080" zoomAndPan="magnify" viewBox="0 0 810 1439.999935" height="1920" preserveAspectRatio="xMidYMid meet" version="1.0"><defs><g/></defs><rect x="-81" width="972" fill="#ffffff" y="-143.999994" height="1727.999922" fill-opacity="1"/><rect x="-81" width="972" fill="#fad02c" y="-143.999994" height="1727.999922" fill-opacity="1"/><g fill="#000000" fill-opacity="1"><g transform="translate(226.299726, 726.911581)"><g><path d="M 42.671875 1.3125 C 38.753906 1.3125 35.273438 0.613281 32.234375 -0.78125 C 29.203125 -2.175781 26.328125 -4.753906 23.609375 -8.515625 L 23.609375 0 L 7.4375 0 L 7.4375 -91.4375 L 23.609375 -91.4375 L 23.609375 -58.71875 C 26.328125 -62.550781 29.203125 -65.164062 32.234375 -66.5625 C 35.273438 -67.96875 38.753906 -68.671875 42.671875 -68.671875 C 48.578125 -68.671875 53.742188 -67.191406 58.171875 -64.234375 C 62.609375 -61.273438 66.066406 -57.160156 68.546875 -51.890625 C 71.023438 -46.617188 72.265625 -40.546875 72.265625 -33.671875 C 72.265625 -26.804688 71.023438 -20.734375 68.546875 -15.453125 C 66.066406 -10.179688 62.609375 -6.066406 58.171875 -3.109375 C 53.742188 -0.160156 48.578125 1.3125 42.671875 1.3125 Z M 38.953125 -12.578125 C 44.140625 -12.578125 48.269531 -14.570312 51.34375 -18.5625 C 54.425781 -22.5625 55.96875 -27.597656 55.96875 -33.671875 C 55.96875 -39.828125 54.425781 -44.878906 51.34375 -48.828125 C 48.269531 -52.785156 44.140625 -54.765625 38.953125 -54.765625 C 33.835938 -54.765625 29.660156 -52.804688 26.421875 -48.890625 C 23.191406 -44.984375 21.578125 -39.910156 21.578125 -33.671875 C 21.578125 -27.441406 23.191406 -22.367188 26.421875 -18.453125 C 29.660156 -14.535156 33.835938 -12.578125 38.953125 -12.578125 Z M 38.953125 -12.578125 "/></g></g></g><g fill="#000000" fill-opacity="1"><g transform="translate(301.683898, 726.911581)"><g><path d="M 26.71875 1.3125 C 20.40625 1.3125 15.148438 -0.382812 10.953125 -3.78125 C 6.765625 -7.175781 4.671875 -12.066406 4.671875 -18.453125 C 4.671875 -22.046875 5.367188 -25.101562 6.765625 -27.625 C 8.171875 -30.144531 10.03125 -32.203125 12.34375 -33.796875 C 14.5 -35.316406 16.953125 -36.515625 19.703125 -37.390625 C 22.460938 -38.265625 25.242188 -38.984375 28.046875 -39.546875 L 48.0625 -43.265625 C 47.894531 -47.421875 46.816406 -50.578125 44.828125 -52.734375 C 42.828125 -54.890625 39.828125 -55.96875 35.828125 -55.96875 C 32.796875 -55.96875 30.097656 -55.066406 27.734375 -53.265625 C 25.378906 -51.472656 23.882812 -48.976562 23.25 -45.78125 L 7.1875 -45.78125 C 7.988281 -51.050781 9.828125 -55.363281 12.703125 -58.71875 C 15.578125 -62.070312 19.070312 -64.566406 23.1875 -66.203125 C 27.300781 -67.847656 31.554688 -68.671875 35.953125 -68.671875 C 39.867188 -68.671875 43.625 -68.109375 47.21875 -66.984375 C 50.8125 -65.867188 53.847656 -64.15625 56.328125 -61.84375 C 58.960938 -59.519531 60.835938 -56.859375 61.953125 -53.859375 C 63.078125 -50.867188 63.738281 -47.753906 63.9375 -44.515625 C 64.132812 -41.285156 64.234375 -38.113281 64.234375 -35 L 64.234375 0 L 48.0625 0 L 48.0625 -9.109375 C 46.382812 -6.148438 44.34375 -3.910156 41.9375 -2.390625 C 39.863281 -1.035156 37.53125 -0.0820312 34.9375 0.46875 C 32.34375 1.03125 29.601562 1.3125 26.71875 1.3125 Z M 30.6875 -11.390625 C 33.875 -11.390625 36.75 -12.023438 39.3125 -13.296875 C 42.820312 -15.054688 45.195312 -17.414062 46.4375 -20.375 C 47.675781 -23.332031 48.335938 -27.007812 48.421875 -31.40625 L 32.359375 -28.15625 C 30.035156 -27.757812 28.132812 -27.238281 26.65625 -26.59375 C 25.1875 -25.957031 23.972656 -25.203125 23.015625 -24.328125 C 22.367188 -23.691406 21.847656 -22.929688 21.453125 -22.046875 C 21.054688 -21.171875 20.859375 -20.175781 20.859375 -19.0625 C 20.859375 -16.582031 21.796875 -14.679688 23.671875 -13.359375 C 25.546875 -12.046875 27.882812 -11.390625 30.6875 -11.390625 Z M 30.6875 -11.390625 "/></g></g></g><g fill="#000000" fill-opacity="1"><g transform="translate(370.835996, 726.911581)"><g><path d="M 23.484375 0 L 7.3125 0 L 7.3125 -67.234375 L 23.484375 -67.234375 L 23.484375 -58.71875 C 26.117188 -62.394531 28.972656 -64.972656 32.046875 -66.453125 C 35.128906 -67.929688 38.390625 -68.671875 41.828125 -68.671875 C 46.222656 -68.671875 50 -67.769531 53.15625 -65.96875 C 56.3125 -64.175781 58.40625 -61.484375 59.4375 -57.890625 C 61.675781 -61.640625 64.429688 -64.375 67.703125 -66.09375 C 70.984375 -67.8125 74.820312 -68.671875 79.21875 -68.671875 C 86.8125 -68.671875 92.382812 -66.453125 95.9375 -62.015625 C 99.488281 -57.585938 101.265625 -51.617188 101.265625 -44.109375 L 101.265625 0 L 85.09375 0 L 85.09375 -42.0625 C 85.09375 -46.695312 84.191406 -50.070312 82.390625 -52.1875 C 80.597656 -54.3125 77.984375 -55.375 74.546875 -55.375 C 72.785156 -55.375 71.222656 -55.070312 69.859375 -54.46875 C 68.503906 -53.863281 67.390625 -53.082031 66.515625 -52.125 C 64.992188 -50.375 63.929688 -48.160156 63.328125 -45.484375 C 62.734375 -42.804688 62.4375 -39.507812 62.4375 -35.59375 L 62.4375 0 L 46.265625 0 L 46.265625 -42.0625 C 46.265625 -46.613281 45.320312 -49.96875 43.4375 -52.125 C 41.5625 -54.289062 38.945312 -55.375 35.59375 -55.375 C 32.238281 -55.375 29.519531 -54.210938 27.4375 -51.890625 C 26.164062 -50.367188 25.1875 -48.347656 24.5 -45.828125 C 23.820312 -43.316406 23.484375 -39.90625 23.484375 -35.59375 Z M 23.484375 0 "/></g></g></g><g fill="#000000" fill-opacity="1"><g transform="translate(477.380561, 726.911581)"><g><path d="M 42.671875 1.3125 C 38.753906 1.3125 35.273438 0.613281 32.234375 -0.78125 C 29.203125 -2.175781 26.328125 -4.753906 23.609375 -8.515625 L 23.609375 0 L 7.4375 0 L 7.4375 -91.4375 L 23.609375 -91.4375 L 23.609375 -58.71875 C 26.328125 -62.550781 29.203125 -65.164062 32.234375 -66.5625 C 35.273438 -67.96875 38.753906 -68.671875 42.671875 -68.671875 C 48.578125 -68.671875 53.742188 -67.191406 58.171875 -64.234375 C 62.609375 -61.273438 66.066406 -57.160156 68.546875 -51.890625 C 71.023438 -46.617188 72.265625 -40.546875 72.265625 -33.671875 C 72.265625 -26.804688 71.023438 -20.734375 68.546875 -15.453125 C 66.066406 -10.179688 62.609375 -6.066406 58.171875 -3.109375 C 53.742188 -0.160156 48.578125 1.3125 42.671875 1.3125 Z M 38.953125 -12.578125 C 44.140625 -12.578125 48.269531 -14.570312 51.34375 -18.5625 C 54.425781 -22.5625 55.96875 -27.597656 55.96875 -33.671875 C 55.96875 -39.828125 54.425781 -44.878906 51.34375 -48.828125 C 48.269531 -52.785156 44.140625 -54.765625 38.953125 -54.765625 C 33.835938 -54.765625 29.660156 -52.804688 26.421875 -48.890625 C 23.191406 -44.984375 21.578125 -39.910156 21.578125 -33.671875 C 21.578125 -27.441406 23.191406 -22.367188 26.421875 -18.453125 C 29.660156 -14.535156 33.835938 -12.578125 38.953125 -12.578125 Z M 38.953125 -12.578125 "/></g></g></g><g fill="#000000" fill-opacity="1"><g transform="translate(552.764755, 726.911581)"><g><path d="M 15.453125 -74.65625 C 12.742188 -74.65625 10.410156 -75.492188 8.453125 -77.171875 C 6.492188 -78.859375 5.515625 -81.097656 5.515625 -83.890625 C 5.515625 -86.609375 6.492188 -88.828125 8.453125 -90.546875 C 10.410156 -92.265625 12.742188 -93.125 15.453125 -93.125 C 18.171875 -93.125 20.507812 -92.265625 22.46875 -90.546875 C 24.425781 -88.828125 25.40625 -86.609375 25.40625 -83.890625 C 25.40625 -81.097656 24.425781 -78.859375 22.46875 -77.171875 C 20.507812 -75.492188 18.171875 -74.65625 15.453125 -74.65625 Z M 23.484375 0 L 7.3125 0 L 7.3125 -67.234375 L 23.484375 -67.234375 Z M 23.484375 0 "/></g></g></g><g fill="#000000" fill-opacity="1"><g transform="translate(376.938852, 783.926576)"><g><path d="M 10.03125 0.890625 C 8.195312 0.890625 6.628906 0.257812 5.328125 -1 C 4.035156 -2.269531 3.390625 -3.820312 3.390625 -5.65625 C 3.390625 -7.382812 4.050781 -8.878906 5.375 -10.140625 C 6.695312 -11.410156 8.25 -12.046875 10.03125 -12.046875 C 11.75 -12.046875 13.226562 -11.410156 14.46875 -10.140625 C 15.707031 -8.878906 16.328125 -7.382812 16.328125 -5.65625 C 16.328125 -3.820312 15.707031 -2.269531 14.46875 -1 C 13.226562 0.257812 11.75 0.890625 10.03125 0.890625 Z M 10.03125 0.890625 "/></g></g></g><g fill="#000000" fill-opacity="1"><g transform="translate(395.129349, 783.926576)"><g><path d="M 10.03125 0.890625 C 8.195312 0.890625 6.628906 0.257812 5.328125 -1 C 4.035156 -2.269531 3.390625 -3.820312 3.390625 -5.65625 C 3.390625 -7.382812 4.050781 -8.878906 5.375 -10.140625 C 6.695312 -11.410156 8.25 -12.046875 10.03125 -12.046875 C 11.75 -12.046875 13.226562 -11.410156 14.46875 -10.140625 C 15.707031 -8.878906 16.328125 -7.382812 16.328125 -5.65625 C 16.328125 -3.820312 15.707031 -2.269531 14.46875 -1 C 13.226562 0.257812 11.75 0.890625 10.03125 0.890625 Z M 10.03125 0.890625 "/></g></g></g><g fill="#000000" fill-opacity="1"><g transform="translate(413.319846, 783.926576)"><g><path d="M 10.03125 0.890625 C 8.195312 0.890625 6.628906 0.257812 5.328125 -1 C 4.035156 -2.269531 3.390625 -3.820312 3.390625 -5.65625 C 3.390625 -7.382812 4.050781 -8.878906 5.375 -10.140625 C 6.695312 -11.410156 8.25 -12.046875 10.03125 -12.046875 C 11.75 -12.046875 13.226562 -11.410156 14.46875 -10.140625 C 15.707031 -8.878906 16.328125 -7.382812 16.328125 -5.65625 C 16.328125 -3.820312 15.707031 -2.269531 14.46875 -1 C 13.226562 0.257812 11.75 0.890625 10.03125 0.890625 Z M 10.03125 0.890625 "/></g></g></g></svg>